<?xml version="1.0" encoding="UTF-8" standalone="no"?>
<svg
   xmlns:dc="http://purl.org/dc/elements/1.1/"
   xmlns:cc="http://creativecommons.org/ns#"
   xmlns:rdf="http://www.w3.org/1999/02/22-rdf-syntax-ns#"
   xmlns:svg="http://www.w3.org/2000/svg"
   xmlns="http://www.w3.org/2000/svg"
   xmlns:sodipodi="http://sodipodi.sourceforge.net/DTD/sodipodi-0.dtd"
   xmlns:inkscape="http://www.inkscape.org/namespaces/inkscape"
   viewBox="0 0 685.33319 255.49025"
   height="255.49025"
   width="685.33319"
   xml:space="preserve"
   version="1.1"
   id="svg2"
   sodipodi:docname="cnn.svg"
   inkscape:version="1.0.1 (c497b03c, 2020-09-10)"><sodipodi:namedview
     pagecolor="#ffffff"
     bordercolor="#666666"
     borderopacity="1"
     objecttolerance="10"
     gridtolerance="10"
     guidetolerance="10"
     inkscape:pageopacity="0"
     inkscape:pageshadow="2"
     inkscape:window-width="2514"
     inkscape:window-height="1027"
     id="namedview1001"
     showgrid="false"
     inkscape:zoom="1.0651753"
     inkscape:cx="342.6666"
     inkscape:cy="127.74512"
     inkscape:window-x="46"
     inkscape:window-y="25"
     inkscape:window-maximized="1"
     inkscape:current-layer="g186" /><metadata
     id="metadata8"><rdf:RDF><cc:Work
         rdf:about=""><dc:format>image/svg+xml</dc:format><dc:type
           rdf:resource="http://purl.org/dc/dcmitype/StillImage" /><dc:title></dc:title></cc:Work></rdf:RDF></metadata><defs
     id="defs6"><clipPath
       id="clipPath18"
       clipPathUnits="userSpaceOnUse"><path
         id="path20"
         d="m 0,204.392 544,0 0,-205 -544,0 0,205 z" /></clipPath><clipPath
       id="clipPath28"
       clipPathUnits="userSpaceOnUse"><path
         id="path30"
         d="M 0,0 544,0 544,205 0,205 0,0 Z" /></clipPath><clipPath
       id="clipPath38"
       clipPathUnits="userSpaceOnUse"><path
         id="path40"
         d="M 0,205 544,205 544,0 0,0 0,205 Z" /></clipPath><clipPath
       id="clipPath48"
       clipPathUnits="userSpaceOnUse"><path
         id="path50"
         d="M 0,0 544,0 544,205 0,205 0,0 Z" /></clipPath><clipPath
       id="clipPath58"
       clipPathUnits="userSpaceOnUse"><path
         id="path60"
         d="M 0,205 544,205 544,0 0,0 0,205 Z" /></clipPath><clipPath
       id="clipPath68"
       clipPathUnits="userSpaceOnUse"><path
         id="path70"
         d="M 0,0 544,0 544,205 0,205 0,0 Z" /></clipPath><clipPath
       id="clipPath78"
       clipPathUnits="userSpaceOnUse"><path
         id="path80"
         d="M 0,205 544,205 544,0 0,0 0,205 Z" /></clipPath><clipPath
       id="clipPath84"
       clipPathUnits="userSpaceOnUse"><path
         id="path86"
         d="M 0,132.836 522.621,216.332 543.746,84.102 21.125,0.605 0,132.836 Z" /></clipPath><clipPath
       id="clipPath94"
       clipPathUnits="userSpaceOnUse"><path
         id="path96"
         d="M 0,0 544,0 544,205 0,205 0,0 Z" /></clipPath><clipPath
       id="clipPath104"
       clipPathUnits="userSpaceOnUse"><path
         id="path106"
         d="M 0,205 544,205 544,0 0,0 0,205 Z" /></clipPath><clipPath
       id="clipPath110"
       clipPathUnits="userSpaceOnUse"><path
         id="path112"
         d="M 0,132.836 522.621,216.332 543.746,84.102 21.125,0.605 0,132.836 Z" /></clipPath><clipPath
       id="clipPath122"
       clipPathUnits="userSpaceOnUse"><path
         id="path124"
         d="m 3.516,46.435 36.664,0 0,-10 -36.664,0 0,10 z" /></clipPath><clipPath
       id="clipPath132"
       clipPathUnits="userSpaceOnUse"><path
         id="path134"
         d="M 7,35 33,35 33,47 7,47 7,35 Z" /></clipPath><clipPath
       id="clipPath142"
       clipPathUnits="userSpaceOnUse"><path
         id="path144"
         d="M 7,47 33,47 33,35 7,35 7,47 Z" /></clipPath><clipPath
       id="clipPath152"
       clipPathUnits="userSpaceOnUse"><path
         id="path154"
         d="M 7,35 33,35 33,47 7,47 7,35 Z" /></clipPath><clipPath
       id="clipPath166"
       clipPathUnits="userSpaceOnUse"><path
         id="path168"
         d="m 116,52.392 145,0 0,-12 -145,0 0,12 z" /></clipPath><clipPath
       id="clipPath176"
       clipPathUnits="userSpaceOnUse"><path
         id="path178"
         d="m 116,41 145,0 0,12 -145,0 0,-12 z" /></clipPath><clipPath
       id="clipPath190"
       clipPathUnits="userSpaceOnUse"><path
         id="path192"
         d="m 70.07,52.755 236.898,0 0,-23 -236.898,0 0,23 z" /></clipPath><clipPath
       id="clipPath200"
       clipPathUnits="userSpaceOnUse"><path
         id="path202"
         d="m 153,30 72,0 0,11 -72,0 0,-11 z" /></clipPath><clipPath
       id="clipPath210"
       clipPathUnits="userSpaceOnUse"><path
         id="path212"
         d="m 153,41 72,0 0,-11 -72,0 0,11 z" /></clipPath><clipPath
       id="clipPath220"
       clipPathUnits="userSpaceOnUse"><path
         id="path222"
         d="m 153,30 71,0 0,11 -71,0 0,-11 z" /></clipPath><clipPath
       id="clipPath234"
       clipPathUnits="userSpaceOnUse"><path
         id="path236"
         d="m 302.656,46.435 236.895,0 0,-10 -236.895,0 0,10 z" /></clipPath><clipPath
       id="clipPath244"
       clipPathUnits="userSpaceOnUse"><path
         id="path246"
         d="m 356,35 131,0 0,12 -131,0 0,-12 z" /></clipPath><clipPath
       id="clipPath254"
       clipPathUnits="userSpaceOnUse"><path
         id="path256"
         d="m 356,47 131,0 0,-12 -131,0 0,12 z" /></clipPath><clipPath
       id="clipPath264"
       clipPathUnits="userSpaceOnUse"><path
         id="path266"
         d="m 356,35 131,0 0,12 -131,0 0,-12 z" /></clipPath><clipPath
       id="clipPath278"
       clipPathUnits="userSpaceOnUse"><path
         id="path280"
         d="m 500.867,46.435 48.133,0 0,-10 -48.133,0 0,10 z" /></clipPath><clipPath
       id="clipPath288"
       clipPathUnits="userSpaceOnUse"><path
         id="path290"
         d="m 507,37 42,0 0,10 -42,0 0,-10 z" /></clipPath><clipPath
       id="clipPath298"
       clipPathUnits="userSpaceOnUse"><path
         id="path300"
         d="m 507,47 42,0 0,-10 -42,0 0,10 z" /></clipPath><clipPath
       id="clipPath308"
       clipPathUnits="userSpaceOnUse"><path
         id="path310"
         d="m 507,37 42,0 0,10 -42,0 0,-10 z" /></clipPath><clipPath
       id="clipPath322"
       clipPathUnits="userSpaceOnUse"><path
         id="path324"
         d="m 18,97.392 512,0 0,-73 -512,0 0,73 z" /></clipPath><clipPath
       id="clipPath332"
       clipPathUnits="userSpaceOnUse"><path
         id="path334"
         d="m 18,25 512,0 0,73 -512,0 0,-73 z" /></clipPath></defs><g
     transform="matrix(1.25,0,0,-1.25,0,255.49025)"
     id="g10"><g
       id="g12" /><g
       id="g118"><g
         clip-path="url(#clipPath122)"
         id="g120"><g
           transform="translate(0,-0.607803)"
           id="g126"><g
             id="g128"><g
               clip-path="url(#clipPath132)"
               id="g130"><g
                 id="g136" /><g
                 id="g138"><g
                   clip-path="url(#clipPath142)"
                   id="g140"><g
                     id="g146"><g
                       id="g148"><g
                         clip-path="url(#clipPath152)"
                         id="g150"><g
                           id="g156"><text
   id="text158"
   style="font-variant:normal;font-weight:normal;font-size:11px;font-family:'DejaVu Sans';-inkscape-font-specification:DejaVuSans;writing-mode:lr-tb;fill:#000000;fill-opacity:1;fill-rule:nonzero;stroke:none"
   transform="matrix(1,0,0,-1,6.66364,37.999997)"><tspan
     id="tspan160"
     y="0"
     x="0 2.8269999 8.9209995 15.444 21.538">Input</tspan></text>
</g></g></g></g></g></g></g></g></g></g></g><g
       id="g162"><g
         clip-path="url(#clipPath166)"
         id="g164"><g
           transform="translate(0,-0.607803)"
           id="g170"><g
             id="g172"><g
               clip-path="url(#clipPath176)"
               id="g174"><g
                 id="g180"><text
   id="text182"
   style="font-variant:normal;font-weight:normal;font-size:11px;font-family:'DejaVu Sans';-inkscape-font-specification:DejaVuSans;writing-mode:lr-tb;fill:#000000;fill-opacity:1;fill-rule:nonzero;stroke:none"
   transform="matrix(1,0,0,-1,115.66364,43.999997)"><tspan
     id="tspan184"
     y="0"
     x="0 7.9419999 14.234 20.327999 25.806 32.119999 34.540001 40.633999 44.098999 46.519001 52.811001 61.963001 67.870003 73.963997 83.523003 92.905998 98.791 104.467 108.724 115.247 121.539 127.831 130.25101 132.67101 138.787">Convolutionandmax-pooling</tspan></text>
</g></g></g></g></g></g><g
       id="g186" /><g
       id="g230"><g
         clip-path="url(#clipPath234)"
         id="g232"><g
           transform="translate(0,-0.607803)"
           id="g238"><g
             id="g240"><g
               clip-path="url(#clipPath244)"
               id="g242"><g
                 id="g248" /><g
                 id="g250"><g
                   clip-path="url(#clipPath254)"
                   id="g252"><g
                     id="g258"><g
                       id="g260"><g
                         clip-path="url(#clipPath264)"
                         id="g262"><g
                           id="g268"><text
   id="text270"
   style="font-variant:normal;font-weight:normal;font-size:11px;font-family:'DejaVu Sans';-inkscape-font-specification:DejaVuSans;writing-mode:lr-tb;fill:#000000;fill-opacity:1;fill-rule:nonzero;stroke:none"
   transform="matrix(1,0,0,-1,355.66364,37.999997)"><tspan
     id="tspan272"
     y="0"
     x="0 6.3249998 12.408 14.828 17.247999 22.747999 27.004999 32.889999 39.181999 45.276001 51.391998 57.277 63.161999 66.626999 72.533997 82.093002 88 94.094002 103.653 111.166 117.073 123.2">Fully-connectedandReLU</tspan></text>
</g></g></g></g></g></g></g></g></g></g></g><g
       id="g274"><g
         clip-path="url(#clipPath278)"
         id="g276"><g
           transform="translate(0,-0.607803)"
           id="g282"><g
             id="g284"><g
               clip-path="url(#clipPath288)"
               id="g286"><g
                 id="g292" /><g
                 id="g294"><g
                   clip-path="url(#clipPath298)"
                   id="g296"><g
                     id="g302"><g
                       id="g304"><g
                         clip-path="url(#clipPath308)"
                         id="g306"><g
                           id="g312"><text
   id="text314"
   style="font-variant:normal;font-weight:normal;font-size:11px;font-family:'DejaVu Sans';-inkscape-font-specification:DejaVuSans;writing-mode:lr-tb;fill:#000000;fill-opacity:1;fill-rule:nonzero;stroke:none"
   transform="matrix(1,0,0,-1,506.66364,37.999997)"><tspan
     id="tspan316"
     y="0"
     x="0 7.1059999 13.398 16.653999 20.118999 29.502001 35.387001">Softmax</tspan></text>
</g></g></g></g></g></g></g></g></g></g></g><path
       id="path4482"
       d="M 53.177756,128.65586 26.87478,112.64535 52.605953,70.760728 41.026925,61.040062 7.4334498,111.9306 l 41.5987282,24.30166 4.574432,-8.1482"
       style="fill:#000000;fill-rule:evenodd;stroke:#000000;stroke-width:0.80000001px;stroke-linecap:butt;stroke-linejoin:miter;stroke-opacity:1;fill-opacity:1" /><path
       id="path4484"
       d="m 27.303633,112.7883 80.624347,1.57247 30.44855,25.87412 -71.618432,-3.28787 z"
       style="fill:#f1ffff;fill-rule:evenodd;stroke:none;stroke-width:0.80000001px;stroke-linecap:butt;stroke-linejoin:miter;stroke-opacity:1;fill-opacity:1" /><path
       id="path4486"
       d="M 108.07092,114.21782 131.37193,58.038087 59.038746,60.468256 27.160682,112.93126 Z"
       style="fill:#587794;fill-opacity:1;fill-rule:evenodd;stroke:none;stroke-width:0.80000001px;stroke-linecap:butt;stroke-linejoin:miter;stroke-opacity:1" /><path
       id="path4488"
       d="m 107.92798,114.36077 30.16264,25.73117 16.43936,-51.891196 -23.301,-30.019704 z"
       style="fill:#54708b;fill-rule:evenodd;stroke:none;stroke-width:0.80000001px;stroke-linecap:butt;stroke-linejoin:miter;stroke-opacity:1;fill-opacity:1" /><path
       id="path4494"
       d="m 431.51731,71.26252 -2.42595,0 -0.40433,-1.516224 2.32487,-0.10108 z"
       style="fill:#5cae79;fill-rule:evenodd;stroke:none;stroke-width:0.80000001px;stroke-linecap:butt;stroke-linejoin:miter;stroke-opacity:1;fill-opacity:1" /><path
       id="path4496"
       d="M 431.51731,71.464688 400.2831,124.6336 398.6658,124.53252 429.19244,71.363608 Z"
       style="fill:#a6ebcb;fill-rule:evenodd;stroke:none;stroke-width:0.80000001px;stroke-linecap:butt;stroke-linejoin:miter;stroke-opacity:1;fill-opacity:1" /><path
       id="path4498"
       d="m 428.88919,71.869014 -0.30324,-2.223798 -30.52664,53.472164 0.70757,1.31406 z"
       style="fill:#9eecc3;fill-opacity:1;fill-rule:evenodd;stroke:none;stroke-width:0.80000001px;stroke-linecap:butt;stroke-linejoin:miter;stroke-opacity:1" /><g
       id="g318"><g
         clip-path="url(#clipPath322)"
         id="g320"><g
           transform="translate(0,-0.607803)"
           id="g326"><g
             id="g328"><g
               clip-path="url(#clipPath332)"
               id="g330"><g
                 id="g336"><path
                   id="path338"
                   style="fill:none;stroke:#d6d5d5;stroke-width:1;stroke-linecap:butt;stroke-linejoin:miter;stroke-miterlimit:4;stroke-dasharray:none;stroke-opacity:1"
                   d="m 58.184,57.629 0,-29.949 277.664,-0.91 0.351,41.226" /><path
                   id="path340"
                   style="fill:none;stroke:#d6d5d5;stroke-width:1;stroke-linecap:butt;stroke-linejoin:miter;stroke-miterlimit:4;stroke-dasharray:none;stroke-opacity:1"
                   d="m 346.074,70.613 0,-43.519 149.867,-0.973 0.895,62.234" /><g
                   transform="matrix(0,1,1,0,0,205)"
                   id="g342"><path
                     id="path344"
                     style="fill:none;stroke:#d6d5d5;stroke-width:1;stroke-linecap:butt;stroke-linejoin:miter;stroke-miterlimit:4;stroke-dasharray:none;stroke-opacity:1"
                     d="m -159.375,526.906 46.512,0" /></g><path
                   id="path346"
                   style="fill:#d6d5d5;fill-opacity:1;fill-rule:nonzero;stroke:none"
                   d="m 529.906,91.637 -3,6 -3,-6 6,0 z" /><g
                   transform="matrix(0,1,1,0,0,205)"
                   id="g348"><path
                     id="path350"
                     style="fill:none;stroke:#d6d5d5;stroke-width:1;stroke-linecap:butt;stroke-linejoin:miter;stroke-miterlimit:4;stroke-dasharray:none;stroke-opacity:1"
                     d="m -159.375,21.344 46.512,0" /></g><path
                   id="path352"
                   style="fill:#d6d5d5;fill-opacity:1;fill-rule:nonzero;stroke:none"
                   d="m 24.344,91.637 -3,6 -3,-6 6,0 z" /></g></g></g></g></g></g><path
       id="path4502"
       d="M 131.21993,58.167974 216.2,77.6"
       style="fill:none;fill-rule:evenodd;stroke:#000000;stroke-width:0.40000001;stroke-linecap:butt;stroke-linejoin:miter;stroke-miterlimit:4;stroke-dasharray:none;stroke-opacity:1" /><path
       id="path4504"
       d="M 107.88399,114.18007 211.4,107.6"
       style="fill:none;fill-rule:evenodd;stroke:#000000;stroke-width:0.40000001;stroke-linecap:butt;stroke-linejoin:miter;stroke-miterlimit:4;stroke-dasharray:none;stroke-opacity:1" /><path
       id="path4506"
       d="M 138.2,139.98007 219.2,122.2"
       style="fill:none;fill-rule:evenodd;stroke:#000000;stroke-width:0.40000001;stroke-linecap:butt;stroke-linejoin:miter;stroke-miterlimit:4;stroke-dasharray:none;stroke-opacity:1" /><path
       id="path4508"
       d="M 154.29608,88.316013 213.4,92.6"
       style="fill:none;fill-rule:evenodd;stroke:#000000;stroke-width:0.40000001;stroke-linecap:butt;stroke-linejoin:miter;stroke-miterlimit:4;stroke-dasharray:none;stroke-opacity:1" /><path
       id="path4510"
       d="M 314.2,76 427.8,70.6"
       style="fill:none;fill-rule:evenodd;stroke:#000000;stroke-width:0.4;stroke-linecap:butt;stroke-linejoin:miter;stroke-opacity:1;stroke-miterlimit:4;stroke-dasharray:none" /><path
       id="path4512"
       d="m 315.8,94.4 82.2,29"
       style="fill:none;fill-rule:evenodd;stroke:#000000;stroke-width:0.4;stroke-linecap:butt;stroke-linejoin:miter;stroke-opacity:1;stroke-miterlimit:4;stroke-dasharray:none" /><path
       id="path4514"
       d="m 317.4,108.8 110,-37.4"
       style="fill:none;fill-rule:evenodd;stroke:#000000;stroke-width:0.4;stroke-linecap:butt;stroke-linejoin:miter;stroke-opacity:1;stroke-miterlimit:4;stroke-dasharray:none" /><path
       id="path4516"
       d="M 316.8,124.2 398,123.8"
       style="fill:none;fill-rule:evenodd;stroke:#000000;stroke-width:0.4;stroke-linecap:butt;stroke-linejoin:miter;stroke-opacity:1;stroke-miterlimit:4;stroke-dasharray:none" /><path
       id="path4520"
       d="M 401.4,123.6 524.84298,102.55251"
       style="fill:none;fill-rule:evenodd;stroke:#000000;stroke-width:0.4;stroke-linecap:butt;stroke-linejoin:miter;stroke-opacity:1;stroke-miterlimit:4;stroke-dasharray:none" /><path
       id="path4500"
       d="m 456.68663,101.28375 21.12606,-0.20216 31.63853,17.5882"
       style="fill:none;fill-rule:evenodd;stroke:#ff0000;stroke-width:0.80000001px;stroke-linecap:butt;stroke-linejoin:miter;stroke-opacity:1" /><path
       id="path4522"
       d="m 528.95123,99.772768 -2.40417,-0.176776 0.53034,2.050608 2.43952,-0.14142 z"
       style="fill:#48c475;fill-opacity:1;fill-rule:evenodd;stroke:none;stroke-width:0.80000001px;stroke-linecap:butt;stroke-linejoin:miter;stroke-opacity:1" /><path
       id="path4524"
       d="m 527.18346,101.61125 -2.22738,1.62634 2.47486,0.21213 2.08597,-1.90918 z"
       style="fill:#a6ebb6;fill-rule:evenodd;stroke:none;stroke-width:0.80000001px;stroke-linecap:butt;stroke-linejoin:miter;stroke-opacity:1;fill-opacity:1" /><path
       id="path4526"
       d="m 526.58242,99.666704 -2.22739,1.484926 0.6364,2.12131 2.08596,-1.59098 z"
       style="fill:#a6ebcb;fill-opacity:1;fill-rule:evenodd;stroke:none;stroke-width:0.80000001px;stroke-linecap:butt;stroke-linejoin:miter;stroke-opacity:1" /><path
       id="path4518"
       d="m 431.6,70.6 96,29.8"
       style="fill:none;fill-rule:evenodd;stroke:#000000;stroke-width:0.4;stroke-linecap:butt;stroke-linejoin:miter;stroke-opacity:1;stroke-miterlimit:4;stroke-dasharray:none" /><path
       id="path4492"
       d="m 211.28151,107.49912 106.35552,1.28656 -1.14361,15.72461 -97.20665,-2.43017 z"
       style="fill:#ffc884;fill-rule:evenodd;stroke:none;stroke-width:0.80000001px;stroke-linecap:butt;stroke-linejoin:miter;stroke-opacity:1;fill-opacity:1" /><path
       id="path4490"
       d="m 211.28151,107.49912 4.57443,-29.7338 98.49322,-1.572456 3.00197,32.592816 z"
       style="fill:#a26352;fill-rule:evenodd;stroke:none;stroke-width:0.80000001px;stroke-linecap:butt;stroke-linejoin:miter;stroke-opacity:1;fill-opacity:1" /></g></svg>
