<?xml version="1.0" encoding="utf-8"?>
<svg viewBox="0 0 350 365" xmlns="http://www.w3.org/2000/svg" xmlns:bx="https://boxy-svg.com">
  <rect width="350" height="365" style="fill: rgb(46, 46, 46); pointer-events: none;">
    <title>background</title>
  </rect>
  <text style="fill: rgb(255, 254, 254); font-family: Arial, sans-serif; font-size: 26.5px; white-space: pre;" transform="matrix(1, 0, 0, 1, 3.105653, 125.294388)"><tspan x="95.453" y="201.603">...</tspan><tspan x="95.453" dy="1em">​</tspan></text>
  <text style="fill: rgb(255, 254, 254); font-family: Arial, sans-serif; font-size: 26.5px; white-space: pre;" transform="matrix(1, 0, 0, 1, 3.105653, -21.011311)"><tspan x="95.453" y="201.603">...</tspan><tspan x="95.453" dy="1em">​</tspan></text>
  <g transform="matrix(1, 0, 0, 1, -1.478162, -26.797575)">
    <circle style="fill: rgb(255, 255, 255);" cx="51.199" cy="200.935" r="35.073"/>
    <text style="fill: rgb(51, 51, 51); font-family: Arial, sans-serif; font-size: 28px; font-style: italic; white-space: pre;" transform="matrix(0.947567, 0, 0, 0.947567, -33.549084, -20.07045)"><tspan x="79.523" y="242.029">h₁</tspan><tspan x="79.523" dy="1em">​</tspan></text>
  </g>
  <g transform="matrix(1, 0, 0, 1, -1.477884, -26.797575)">
    <circle style="fill: rgb(255, 255, 255);" cx="170.953" cy="199.835" r="35.073"/>
    <text style="fill: rgb(51, 51, 51); font-family: Arial, sans-serif; font-size: 28px; font-style: italic; white-space: pre;" transform="matrix(0.947567, 0, 0, 0.947567, 85.960938, -21.170128)"><tspan x="79.523" y="242.029">hₘ</tspan><tspan x="79.523" dy="1em">​</tspan></text>
  </g>
  <g transform="matrix(0.947567, 0, 0, 0.947567, 2.139361, -65.260139)">
    <circle style="fill: rgb(255, 255, 255);" cx="302.976" cy="252.064" r="37.014"/>
    <text style="fill: rgb(51, 51, 51); font-family: Arial, sans-serif; font-size: 28px; white-space: pre;" x="296.075" y="260.856">1</text>
  </g>
  <g transform="matrix(0.947567, 0, 0, 0.947567, -5.875973, -33.449196)">
    <circle style="fill: rgb(255, 255, 255);" cx="185.054" cy="85.216" r="37.014"/>
    <text style="fill: rgb(51, 51, 51); font-family: Arial, sans-serif; font-size: 28px; font-style: italic; white-space: pre;" transform="matrix(1, 0, 0, 1, -9.383492, 10.958183)"><tspan x="186.778" y="83.05">ŷ</tspan><tspan x="186.778" dy="1em">​</tspan></text>
  </g>
  <line style="stroke: rgb(255, 254, 254); stroke-width: 2px;" x1="75.454" y1="137.46" x2="135.974" y2="74.208"/>
  <line style="stroke: rgb(255, 254, 254); stroke-width: 2px;" x1="166.603" y1="131.397" x2="166.603" y2="90.953"/>
  <line style="stroke: rgb(255, 254, 254); stroke-width: 2px;" x1="261.478" y1="139.674" x2="203.554" y2="75.615"/>
  <g transform="matrix(1, 0, 0, 1, 0.825697, 121.19191)">
    <circle style="fill: rgb(255, 255, 255);" cx="51.199" cy="200.935" r="35.073"/>
    <text style="fill: rgb(51, 51, 51); font-family: Arial, sans-serif; font-size: 28px; font-style: italic; white-space: pre;" transform="matrix(0.947567, 0, 0, 0.947567, -33.549084, -20.07045)" bx:origin="0.5 0.622"><tspan x="79.523" y="242.029">x₁</tspan><tspan x="79.523" dy="1em">​</tspan></text>
  </g>
  <g transform="matrix(1, 0, 0, 1, -1.477884, 122.291893)">
    <circle style="fill: rgb(255, 255, 255);" cx="170.953" cy="199.835" r="35.073"/>
    <text style="fill: rgb(51, 51, 51); font-family: Arial, sans-serif; font-size: 28px; font-style: italic; white-space: pre;" transform="matrix(0.947567, 0, 0, 0.947567, 85.960938, -21.170128)"><tspan x="79.523" y="242.029">xₙ</tspan><tspan x="79.523" dy="1em">​</tspan></text>
  </g>
  <g transform="matrix(0.947567, 0, 0, 0.947567, 4.443221, 83.279343)">
    <circle style="fill: rgb(255, 255, 255);" cx="302.976" cy="252.064" r="37.014"/>
    <text style="fill: rgb(51, 51, 51); font-family: Arial, sans-serif; font-size: 28px; white-space: pre;" x="296.075" y="260.856">1</text>
  </g>
  <line style="stroke: rgb(255, 255, 255); stroke-width: 2px;" x1="50.332" y1="280.155" x2="50.332" y2="214.918"/>
  <line style="stroke: rgb(255, 255, 255); stroke-width: 2px;" x1="73.928" y1="283.887" x2="143.701" y2="205.702"/>
  <line style="stroke: rgb(255, 255, 255); stroke-width: 2px;" x1="169.838" y1="278.855" x2="169.838" y2="213.195"/>
  <line style="stroke: rgb(255, 255, 255); stroke-width: 2px;" x1="267.511" y1="288.653" x2="196.683" y2="204.601"/>
  <line style="stroke: rgb(255, 255, 255); stroke-width: 2px;" x1="147.408" y1="285.145" x2="74.532" y2="206.66"/>
  <line style="stroke: rgb(255, 255, 255); stroke-width: 2px;" x1="258.264" y1="298.516" x2="87.387" y2="197.025"/>
</svg>